<?xml version="1.0" standalone="no"?><!DOCTYPE svg PUBLIC "-//W3C//DTD SVG 1.1//EN" "http://www.w3.org/Graphics/SVG/1.1/DTD/svg11.dtd"><svg t="1782986258362" class="icon" viewBox="0 0 1024 1024" version="1.1" xmlns="http://www.w3.org/2000/svg" p-id="3336" xmlns:xlink="http://www.w3.org/1999/xlink" width="200" height="200"><path d="M512 1024C229.233778 1024 0 794.766222 0 512S229.233778 0 512 0s512 229.233778 512 512-229.233778 512-512 512z m-41.472-238.919111l23.352889 16.469333 12.785778 9.116445 12.785777-9.116445 23.352889-16.540444c43.434667-30.620444 88.661333-62.293333 123.904-96.384 52.167111-49.834667 76.401778-96.910222 76.401778-148.081778V300.231111L506.666667 213.333333 270.222222 300.231111v240.312889c0 51.171556 24.234667 98.247111 76.330667 148.295111 35.612444 33.962667 80.540444 65.621333 123.975111 96.241778zM409.884444 462.833778l58.666667 68.664889 138.097778-135.168 30.961778 31.886222-171.946667 168.248889-89.400889-104.704 33.621333-28.928z" fill="#C9A962" p-id="3337"></path></svg>