<?xml version="1.0" standalone="no"?><!DOCTYPE svg PUBLIC "-//W3C//DTD SVG 1.1//EN" "http://www.w3.org/Graphics/SVG/1.1/DTD/svg11.dtd"><svg t="1782986283726" class="icon" viewBox="0 0 1024 1024" version="1.1" xmlns="http://www.w3.org/2000/svg" p-id="3888" xmlns:xlink="http://www.w3.org/1999/xlink" width="200" height="200"><path d="M512 1024C229.233778 1024 0 794.766222 0 512S229.233778 0 512 0s512 229.233778 512 512-229.233778 512-512 512z m217.372444-552.718222l-273.351111 33.749333-22.172444-54.826667 218.908444-29.283555a29.383111 29.383111 0 1 0-7.808-58.225778L411.136 393.955556l-57.742222-142.890667c-4.152889-15.317333-20.110222-24.419556-35.626667-20.309333L291.797333 227.555556a28.714667 28.714667 0 0 0-20.579555 35.185777l102.357333 335.943111 4.650667 15.232c0.839111 3.100444 2.161778 5.930667 3.868444 8.462223a28.970667 28.970667 0 0 0 28.956445 25.884444h178.958222l-28.899556 65.863111a26.211556 26.211556 0 0 0-1.038222 2.816h-82.844444a77.553778 77.553778 0 0 0-77.568 77.568h297.386666a77.568 77.568 0 0 0-68.764444-77.070222l30.350222-69.176889h14.193778c16.042667 0 27.264-3.541333 35.768889-24.832l49.848889-123.406222c0-15.872-12.999111-28.743111-29.070223-28.743111z" fill="#C9A962" p-id="3889"></path></svg>