<?xml version="1.0" standalone="no"?><!DOCTYPE svg PUBLIC "-//W3C//DTD SVG 1.1//EN" "http://www.w3.org/Graphics/SVG/1.1/DTD/svg11.dtd"><svg t="1782986302047" class="icon" viewBox="0 0 1024 1024" version="1.1" xmlns="http://www.w3.org/2000/svg" p-id="4434" xmlns:xlink="http://www.w3.org/1999/xlink" width="200" height="200"><path d="M512 1024C229.233778 1024 0 794.766222 0 512S229.233778 0 512 0s512 229.233778 512 512-229.233778 512-512 512z m117.546667-796.344889H380.643556a53.461333 53.461333 0 0 0-53.333334 53.333333v462.222223a53.461333 53.461333 0 0 0 53.333334 53.333333h248.888888c29.312 0 53.333333-23.992889 53.333334-53.333333v-462.222223c0-29.340444-24.021333-53.333333-53.333334-53.333333z m-195.555556 26.666667h142.222222v17.777778h-142.222222v-17.777778z m71.111111 506.666666a35.555556 35.555556 0 1 1 0-71.111111 35.555556 35.555556 0 0 1 0 71.111111z m142.222222-106.666666H362.865778v-355.555556h284.444444v355.555556z m-60.259555-236.103111v0.014222a99.512889 99.512889 0 1 0 10.638222 14.762667L507.733333 547.939556l-57.671111-64.995556 13.795556-17.379556L507.733333 501.902222l79.331556-83.669333z" fill="#C9A962" p-id="4435"></path></svg>