<?xml version="1.0" standalone="no"?><!DOCTYPE svg PUBLIC "-//W3C//DTD SVG 1.1//EN" "http://www.w3.org/Graphics/SVG/1.1/DTD/svg11.dtd"><svg t="1782986273836" class="icon" viewBox="0 0 1024 1024" version="1.1" xmlns="http://www.w3.org/2000/svg" p-id="3627" xmlns:xlink="http://www.w3.org/1999/xlink" width="200" height="200"><path d="M512 1024C229.233778 1024 0 794.766222 0 512S229.233778 0 512 0s512 229.233778 512 512-229.233778 512-512 512z m133.020444-682.666667c21.888-6.456889 71.793778-22.627556 57.6-55.452444-13.468444-31.288889-72.035556-13.866667-72.035555-13.866667l-86.471111 27.733334c-18.688 5.632-28.814222 0-28.814222 0-19.797333-15.047111-129.678222-96.995556-129.678223-96.995556-60.728889-13.226667-43.207111 13.852444-43.207111 13.852444l86.471111 124.728889-57.642666 13.923556c-10.894222 3.413333-19.100444 3.640889-27.918223 0.739555l-50.702222 20.522667c45.696 54.286222 107.434667 34.133333 107.434667 34.133333s223.032889-62.848 244.963555-69.304888z m-362.126222 25.173334l47.118222-19.285334c-7.608889-4.935111-19.555556-10.951111-30.805333-19.740444-38.542222-30.051556-43.207111 0-43.207111 0s4.309333 14.449778 26.894222 39.025778z m359.623111 74.894222V398.222222h-36.167111v43.178667H367.246222A82.887111 82.887111 0 0 0 284.444444 524.188444v237.027556a82.901333 82.901333 0 0 0 82.801778 82.816h13.027556v5.162667a24.120889 24.120889 0 0 0 48.213333 0v-5.162667h156.771556v5.162667a24.106667 24.106667 0 1 0 48.227555 0v-5.162667h12.999111a82.901333 82.901333 0 0 0 82.816-82.816V524.188444a82.887111 82.887111 0 0 0-82.816-82.787555h-3.968z m-232.675555 91.875555c9.998222 0 18.090667 8.106667 18.090666 18.104889v181.589334a18.090667 18.090667 0 1 1-36.181333 0V551.381333c0-9.998222 8.106667-18.104889 18.076445-18.104889z m192.995555 0c9.998222 0 18.104889 8.106667 18.104889 18.104889v181.589334a18.090667 18.090667 0 0 1-36.167111 0V551.381333c0-9.998222 8.092444-18.104889 18.062222-18.104889z" fill="#C9A962" p-id="3628"></path></svg>